<mxfile host="app.diagrams.net" modified="2023-06-09T05:14:27.255Z" agent="Mozilla/5.0 (Windows NT 10.0; Win64; x64) AppleWebKit/537.36 (KHTML, like Gecko) Chrome/114.0.0.0 Safari/537.36" etag="p2gFDkzM0oriUrnWNEQK" version="21.3.8" type="github">
  <diagram id="C5RBs43oDa-KdzZeNtuy" name="Page-1">
    <mxGraphModel dx="1290" dy="541" grid="1" gridSize="10" guides="1" tooltips="1" connect="1" arrows="1" fold="1" page="1" pageScale="1" pageWidth="827" pageHeight="1169" math="0" shadow="0">
      <root>
        <mxCell id="WIyWlLk6GJQsqaUBKTNV-0" />
        <mxCell id="WIyWlLk6GJQsqaUBKTNV-1" parent="WIyWlLk6GJQsqaUBKTNV-0" />
        <mxCell id="WIyWlLk6GJQsqaUBKTNV-3" value="UI" style="rounded=1;whiteSpace=wrap;html=1;fontSize=12;glass=0;strokeWidth=1;shadow=0;" parent="WIyWlLk6GJQsqaUBKTNV-1" vertex="1">
          <mxGeometry x="330" y="10" width="120" height="40" as="geometry" />
        </mxCell>
        <mxCell id="4h2z0_CyP2gQ8NMy76Tu-0" value="DB" style="strokeWidth=2;html=1;shape=mxgraph.flowchart.database;whiteSpace=wrap;" parent="WIyWlLk6GJQsqaUBKTNV-1" vertex="1">
          <mxGeometry x="330" y="310" width="120" height="130" as="geometry" />
        </mxCell>
        <mxCell id="eD3uCaXp2_mQKRS4hEy6-0" value="" style="endArrow=classic;html=1;rounded=0;fontSize=12;startSize=8;endSize=8;curved=1;entryX=0.5;entryY=0;entryDx=0;entryDy=0;" edge="1" parent="WIyWlLk6GJQsqaUBKTNV-1" target="eD3uCaXp2_mQKRS4hEy6-1">
          <mxGeometry width="50" height="50" relative="1" as="geometry">
            <mxPoint x="450" y="40" as="sourcePoint" />
            <mxPoint x="480" y="100" as="targetPoint" />
          </mxGeometry>
        </mxCell>
        <mxCell id="eD3uCaXp2_mQKRS4hEy6-1" value="" style="swimlane;startSize=0;fontSize=16;" vertex="1" parent="WIyWlLk6GJQsqaUBKTNV-1">
          <mxGeometry x="520" y="170" width="200" height="60" as="geometry" />
        </mxCell>
        <mxCell id="eD3uCaXp2_mQKRS4hEy6-2" value="Реєстрація студента&amp;nbsp;" style="text;html=1;align=center;verticalAlign=middle;resizable=0;points=[];autosize=1;strokeColor=none;fillColor=none;fontSize=16;" vertex="1" parent="eD3uCaXp2_mQKRS4hEy6-1">
          <mxGeometry x="10" y="20" width="180" height="30" as="geometry" />
        </mxCell>
        <mxCell id="eD3uCaXp2_mQKRS4hEy6-16" value="1 Мікросервіс" style="text;strokeColor=none;fillColor=none;html=1;fontSize=16;fontStyle=1;verticalAlign=middle;align=center;" vertex="1" parent="eD3uCaXp2_mQKRS4hEy6-1">
          <mxGeometry x="50" y="10" width="100" height="10" as="geometry" />
        </mxCell>
        <mxCell id="eD3uCaXp2_mQKRS4hEy6-3" value="" style="endArrow=classic;html=1;rounded=0;fontSize=12;startSize=8;endSize=8;curved=1;entryX=0.993;entryY=0.065;entryDx=0;entryDy=0;entryPerimeter=0;exitX=0.5;exitY=1;exitDx=0;exitDy=0;" edge="1" parent="WIyWlLk6GJQsqaUBKTNV-1" source="eD3uCaXp2_mQKRS4hEy6-1" target="4h2z0_CyP2gQ8NMy76Tu-0">
          <mxGeometry width="50" height="50" relative="1" as="geometry">
            <mxPoint x="470" y="300" as="sourcePoint" />
            <mxPoint x="520" y="250" as="targetPoint" />
          </mxGeometry>
        </mxCell>
        <mxCell id="eD3uCaXp2_mQKRS4hEy6-5" value="" style="swimlane;startSize=0;fontSize=16;" vertex="1" parent="WIyWlLk6GJQsqaUBKTNV-1">
          <mxGeometry x="300" y="170" width="200" height="60" as="geometry" />
        </mxCell>
        <mxCell id="eD3uCaXp2_mQKRS4hEy6-6" value="Средня успішність" style="text;html=1;align=center;verticalAlign=middle;resizable=0;points=[];autosize=1;strokeColor=none;fillColor=none;fontSize=16;" vertex="1" parent="eD3uCaXp2_mQKRS4hEy6-5">
          <mxGeometry x="20" y="20" width="160" height="30" as="geometry" />
        </mxCell>
        <mxCell id="eD3uCaXp2_mQKRS4hEy6-15" value="2 Мікросервіс" style="text;strokeColor=none;fillColor=none;html=1;fontSize=16;fontStyle=1;verticalAlign=middle;align=center;" vertex="1" parent="eD3uCaXp2_mQKRS4hEy6-5">
          <mxGeometry x="50" y="10" width="100" height="10" as="geometry" />
        </mxCell>
        <mxCell id="eD3uCaXp2_mQKRS4hEy6-9" value="" style="endArrow=classic;html=1;rounded=0;fontSize=12;startSize=8;endSize=8;curved=1;exitX=0.32;exitY=-0.055;exitDx=0;exitDy=0;exitPerimeter=0;entryX=0.871;entryY=1.044;entryDx=0;entryDy=0;entryPerimeter=0;" edge="1" parent="WIyWlLk6GJQsqaUBKTNV-1" source="eD3uCaXp2_mQKRS4hEy6-1" target="WIyWlLk6GJQsqaUBKTNV-3">
          <mxGeometry width="50" height="50" relative="1" as="geometry">
            <mxPoint x="500" y="310" as="sourcePoint" />
            <mxPoint x="550" y="260" as="targetPoint" />
          </mxGeometry>
        </mxCell>
        <mxCell id="eD3uCaXp2_mQKRS4hEy6-10" value="" style="endArrow=classic;html=1;rounded=0;fontSize=12;startSize=8;endSize=8;curved=1;exitX=1.021;exitY=0.249;exitDx=0;exitDy=0;exitPerimeter=0;entryX=0.61;entryY=1.106;entryDx=0;entryDy=0;entryPerimeter=0;" edge="1" parent="WIyWlLk6GJQsqaUBKTNV-1" source="4h2z0_CyP2gQ8NMy76Tu-0" target="eD3uCaXp2_mQKRS4hEy6-1">
          <mxGeometry width="50" height="50" relative="1" as="geometry">
            <mxPoint x="694.5" y="405" as="sourcePoint" />
            <mxPoint x="545.5" y="290" as="targetPoint" />
          </mxGeometry>
        </mxCell>
        <mxCell id="eD3uCaXp2_mQKRS4hEy6-11" value="" style="swimlane;startSize=0;fontSize=16;" vertex="1" parent="WIyWlLk6GJQsqaUBKTNV-1">
          <mxGeometry x="80" y="170" width="200" height="60" as="geometry" />
        </mxCell>
        <mxCell id="eD3uCaXp2_mQKRS4hEy6-12" value="Найуспішніший рік" style="text;html=1;align=center;verticalAlign=middle;resizable=0;points=[];autosize=1;strokeColor=none;fillColor=none;fontSize=16;" vertex="1" parent="eD3uCaXp2_mQKRS4hEy6-11">
          <mxGeometry x="20" y="20" width="160" height="30" as="geometry" />
        </mxCell>
        <mxCell id="eD3uCaXp2_mQKRS4hEy6-17" value="3 Мікросервіс" style="text;strokeColor=none;fillColor=none;html=1;fontSize=16;fontStyle=1;verticalAlign=middle;align=center;" vertex="1" parent="eD3uCaXp2_mQKRS4hEy6-11">
          <mxGeometry x="50" y="10" width="100" height="10" as="geometry" />
        </mxCell>
        <mxCell id="eD3uCaXp2_mQKRS4hEy6-14" value="" style="endArrow=classic;html=1;rounded=0;fontSize=12;startSize=8;endSize=8;curved=1;entryX=0.146;entryY=1.075;entryDx=0;entryDy=0;entryPerimeter=0;" edge="1" parent="WIyWlLk6GJQsqaUBKTNV-1" target="WIyWlLk6GJQsqaUBKTNV-3">
          <mxGeometry width="50" height="50" relative="1" as="geometry">
            <mxPoint x="250" y="170" as="sourcePoint" />
            <mxPoint x="300" y="120" as="targetPoint" />
          </mxGeometry>
        </mxCell>
        <mxCell id="eD3uCaXp2_mQKRS4hEy6-18" value="" style="endArrow=classic;html=1;rounded=0;fontSize=12;startSize=8;endSize=8;curved=1;entryX=0.5;entryY=1;entryDx=0;entryDy=0;exitX=0.552;exitY=-0.003;exitDx=0;exitDy=0;exitPerimeter=0;" edge="1" parent="WIyWlLk6GJQsqaUBKTNV-1" source="4h2z0_CyP2gQ8NMy76Tu-0" target="eD3uCaXp2_mQKRS4hEy6-5">
          <mxGeometry width="50" height="50" relative="1" as="geometry">
            <mxPoint x="389" y="310" as="sourcePoint" />
            <mxPoint x="439" y="260" as="targetPoint" />
          </mxGeometry>
        </mxCell>
        <mxCell id="eD3uCaXp2_mQKRS4hEy6-19" value="" style="endArrow=classic;html=1;rounded=0;fontSize=12;startSize=8;endSize=8;curved=1;entryX=0.5;entryY=1;entryDx=0;entryDy=0;" edge="1" parent="WIyWlLk6GJQsqaUBKTNV-1" target="WIyWlLk6GJQsqaUBKTNV-3">
          <mxGeometry width="50" height="50" relative="1" as="geometry">
            <mxPoint x="394.5" y="170" as="sourcePoint" />
            <mxPoint x="405.5" y="90" as="targetPoint" />
          </mxGeometry>
        </mxCell>
        <mxCell id="eD3uCaXp2_mQKRS4hEy6-20" value="" style="endArrow=classic;html=1;rounded=0;fontSize=12;startSize=8;endSize=8;curved=1;entryX=0.795;entryY=1.06;entryDx=0;entryDy=0;entryPerimeter=0;" edge="1" parent="WIyWlLk6GJQsqaUBKTNV-1" target="eD3uCaXp2_mQKRS4hEy6-11">
          <mxGeometry width="50" height="50" relative="1" as="geometry">
            <mxPoint x="340" y="320" as="sourcePoint" />
            <mxPoint x="351" y="240" as="targetPoint" />
          </mxGeometry>
        </mxCell>
      </root>
    </mxGraphModel>
  </diagram>
</mxfile>
